<?xml version="1.0" standalone="no"?>
<!DOCTYPE svg PUBLIC "-//W3C//DTD SVG 20010904//EN"
 "http://www.w3.org/TR/2001/REC-SVG-20010904/DTD/svg10.dtd">
<svg version="1.0" xmlns="http://www.w3.org/2000/svg"
 width="512.000000pt" height="512.000000pt" viewBox="0 0 512.000000 512.000000"
 preserveAspectRatio="xMidYMid meet">

<g transform="translate(0.000000,512.000000) scale(0.100000,-0.100000)"
fill="#000000" stroke="none">
<path d="M530 4378 c-79 -22 -102 -86 -57 -160 12 -20 453 -473 979 -1007 901
-912 961 -971 1013 -990 71 -27 139 -27 209 0 52 19 119 84 1017 989 529 534
972 985 984 1002 44 66 38 120 -18 154 -31 19 -69 19 -2062 21 -1323 1 -2042
-2 -2065 -9z"/>
<path d="M42 3907 c-13 -13 -27 -39 -32 -58 -15 -51 -13 -2536 1 -2580 26 -77
75 -97 147 -60 30 16 894 888 1256 1269 l88 92 -643 652 c-354 358 -662 664
-683 680 -50 36 -103 38 -134 5z"/>
<path d="M4944 3871 c-21 -16 -327 -317 -678 -669 l-640 -641 159 -163 c854
-877 1142 -1168 1175 -1187 72 -40 122 -20 149 58 16 48 16 2504 0 2552 -28
84 -93 103 -165 50z"/>
<path d="M1214 1678 c-707 -722 -750 -768 -763 -814 -14 -50 2 -88 47 -111 35
-17 122 -18 2042 -21 1480 -2 2016 0 2047 9 79 21 107 84 70 155 -8 16 -309
330 -667 697 l-653 668 -166 -164 c-173 -171 -224 -212 -318 -253 -186 -83
-433 -73 -617 23 -57 31 -107 73 -257 220 l-185 183 -580 -592z"/>
</g>
</svg>
